PathFileType	4	(X/Y/Z)	/Users/itak/Documents/Research/Walk-IL/dataset/trc/00118_00007.trc
DataRate	CameraRate	NumFrames	NumMarkers	Units	OrigDataRate	OrigDataStartFrame	OrigNumFrames
100.000000	100.000000	4	55	mm	100.000000	0	750
Frame#	Time	RPSI			LPSI			L3			STRN			T10			C7			CLAV			RBAK			LBAK			LSHO			LUPA			LAEL			LAOL			LWTS			LWPS			LFRA			LIFD			LHPS			LHTS			RSHO			RUPA			RAEL			RAOL			RWTS			RWPS			RFRA			RIFD			RHTS			RHPS			RBHD			LFHD			RFHD			LBHD			LHIP			RHIP			RASI			LASI			LKNE			LTHI			LANK			LTIP			LTOE			LMT1			LMT5			LHEE			RKNE			RANK			RTIP			RTOE			RMT1			RMT5			RHEE			RTHI			*53			*54			
		X1	Y1	Z1	X2	Y2	Z2	X3	Y3	Z3	X4	Y4	Z4	X5	Y5	Z5	X6	Y6	Z6	X7	Y7	Z7	X8	Y8	Z8	X9	Y9	Z9	X10	Y10	Z10	X11	Y11	Z11	X12	Y12	Z12	X13	Y13	Z13	X14	Y14	Z14	X15	Y15	Z15	X16	Y16	Z16	X17	Y17	Z17	X18	Y18	Z18	X19	Y19	Z19	X20	Y20	Z20	X21	Y21	Z21	X22	Y22	Z22	X23	Y23	Z23	X24	Y24	Z24	X25	Y25	Z25	X26	Y26	Z26	X27	Y27	Z27	X28	Y28	Z28	X29	Y29	Z29	X30	Y30	Z30	X31	Y31	Z31	X32	Y32	Z32	X33	Y33	Z33	X34	Y34	Z34	X35	Y35	Z35	X36	Y36	Z36	X37	Y37	Z37	X38	Y38	Z38	X39	Y39	Z39	X40	Y40	Z40	X41	Y41	Z41	X42	Y42	Z42	X43	Y43	Z43	X44	Y44	Z44	X45	Y45	Z45	X46	Y46	Z46	X47	Y47	Z47	X48	Y48	Z48	X49	Y49	Z49	X50	Y50	Z50	X51	Y51	Z51	X52	Y52	Z52	X53	Y53	Z53	X54	Y54	Z54	X55	Y55	Z55	

1	0	-58.63119125366211	1132.203857421875	1242.206420898438	-53.33689117431641	1133.24072265625	1107.892700195312	-62.05568695068359	1164.353515625	1172.345581054688	150.1519927978516	1367.015258789062	1179.970458984375	-103.9286041259766	1314.80419921875	1169.683471679688	-75.35255432128906	1608.034423828125	1158.795288085938	110.2179183959961	1500.672485351562	1175.387451171875	-128.546875	1423.093383789062	1244.090576171875	-75.41105651855469	1586.707763671875	1055.828247070312	16.15722846984863	1573.16162109375	992.3753051757812	6.006837844848633	1440.828002929688	921.2695922851562	35.20357131958008	1219.955688476562	907.0980224609375	-40.50424957275391	1207.247802734375	950.3912963867188	131.3783721923828	966.9007568359375	979.2517700195312	58.54047012329102	937.5467529296875	936.2488403320312	56.62733840942383	1104.479370117188	910.4478149414062	145.0771026611328	775.7132568359375	1009.759643554688	89.95349884033203	863.7771606445312	943.8147583007812	152.0279846191406	877.9022827148438	973.6995849609375	-23.40778350830078	1588.240356445312	1344.076416015625	-40.70828628540039	1514.584838867188	1407.218139648438	-45.50110244750977	1218.90625	1425.794067382812	-59.85696411132812	1219.072021484375	1331.190307617188	96.97193908691406	975.9835205078125	1393.763916015625	23.36058044433594	956.6170043945312	1426.712280273438	-20.565185546875	1144.858642578125	1437.034545898438	124.3672790527344	783.8681640625	1366.462280273438	128.0713806152344	868.099853515625	1394.400146484375	63.82628631591797	858.7200317382812	1426.984985351562	-24.23571014404297	1788.372436523438	1241.993041992188	133.2461700439453	1839.81787109375	1095.846435546875	141.7851409912109	1849.988037109375	1225.914184570312	-41.494384765625	1782.79296875	1108.702758789062	43.42355346679688	1043.955444335938	1004.342895507812	66.06918334960938	1037.423583984375	1362.821899414062	147.2769927978516	1110.674682617188	1312.620971679688	148.5741271972656	1109.554931640625	1047.23828125	69.33695983886719	541.9734497070312	1034.359619140625	46.60943603515625	687.9522094726562	1006.801391601562	-45.1292839050293	41.54984664916992	1042.045043945312	-34.00636291503906	296.1015319824219	1008.881896972656	186.0307006835938	40.08797073364258	1097.59765625	105.3589553833008	44.90335464477539	1133.221801757812	79.33018493652344	39.59235382080078	1016.452331542969	-115.4822463989258	43.05153656005859	1103.342651367188	56.86451721191406	544.4740600585938	1327.892944335938	-50.00550079345703	34.32705307006836	1307.99951171875	28.72056579589844	412.0857849121094	1339.298950195312	186.2194976806641	48.76370239257812	1261.732299804688	127.4306259155273	40.55288696289062	1216.533569335938	85.10543823242188	43.71437454223633	1333.533569335938	-105.2933044433594	37.1373405456543	1256.797973632812	89.04045104980469	820.34765625	1353.450805664062	nan	nan	nan	nan	nan	nan	
2	0.01	-58.58001327514648	1132.207763671875	1242.255126953125	-53.31659317016602	1133.25146484375	1107.93505859375	-62.01975631713867	1164.365112304688	1172.394775390625	150.2469024658203	1367.011352539062	1180.004150390625	-103.8139114379883	1314.821411132812	1169.778564453125	-75.27482604980469	1608.054931640625	1158.834838867188	110.3358001708984	1500.6748046875	1175.429443359375	-128.45263671875	1423.120361328125	1244.167602539062	-75.31930541992188	1586.736450195312	1055.874267578125	16.2379150390625	1573.17724609375	992.4219360351562	6.066312313079834	1440.849487304688	921.3069458007812	35.23269271850586	1219.970825195312	907.126220703125	-40.45531463623047	1207.2744140625	950.4422607421875	131.3937225341797	966.9028930664062	979.2763671875	58.55217742919922	937.5520629882812	936.253173828125	56.63860702514648	1104.489501953125	910.4727172851562	145.0742645263672	775.7080688476562	1009.763000488281	89.94454193115234	863.7835083007812	943.8300170898438	152.0637054443359	877.9097900390625	973.702880859375	-23.27178573608398	1588.2548828125	1344.126342773438	-40.55023956298828	1514.607055664062	1407.322998046875	-45.39839172363281	1218.916381835938	1425.853515625	-59.76959991455078	1219.093505859375	1331.246459960938	97.05240631103516	975.9766235351562	1393.774169921875	23.43912124633789	956.62890625	1426.753540039062	-20.42964744567871	1144.879028320312	1437.08154296875	124.4041366577148	783.8580932617188	1366.462036132812	128.1231536865234	868.0944213867188	1394.398071289062	63.90446853637695	858.7190551757812	1427.006469726562	-24.00715827941895	1788.358764648438	1242.169799804688	133.2360687255859	1839.823120117188	1095.754150390625	142.0021209716797	1849.9755859375	1225.800903320312	-41.43511581420898	1782.709106445312	1108.911254882812	43.47465133666992	1043.965454101562	1004.384216308594	66.12931060791016	1037.416259765625	1362.83740234375	147.3610534667969	1110.661987304688	1312.631469726562	148.6017608642578	1109.547485351562	1047.259765625	69.32982635498047	541.9747314453125	1034.364013671875	46.61822128295898	687.9560546875	1006.809692382812	-45.17891693115234	41.59307098388672	1041.9970703125	-34.01430892944336	296.1107788085938	1008.89111328125	186.0323333740234	40.08792114257812	1097.598266601562	105.3662338256836	44.90448379516602	1133.217529296875	79.33489990234375	39.59275054931641	1016.445373535156	-115.4785232543945	43.05322265625	1103.34375	56.88214874267578	544.4691772460938	1327.910278320312	-50.00379180908203	34.32841491699219	1307.9990234375	28.72575569152832	412.0830383300781	1339.31884765625	186.2198333740234	48.76325225830078	1261.733154296875	127.4315414428711	40.55898666381836	1216.532592773438	85.1070556640625	43.715087890625	1333.536743164062	-105.2941665649414	37.13837814331055	1256.787719726562	89.04683685302734	820.335693359375	1353.4580078125	nan	nan	nan	nan	nan	nan	
3	0.02	-58.51494598388672	1132.212280273438	1242.317260742188	-53.28990173339844	1133.263549804688	1107.9873046875	-61.9776611328125	1164.380615234375	1172.454711914062	150.3679809570312	1367.007690429688	1180.045776367188	-103.6700286865234	1314.843994140625	1169.899291992188	-75.17342376708984	1608.08203125	1158.884521484375	110.4805908203125	1500.679077148438	1175.479370117188	-128.3358001708984	1423.153198242188	1244.263916015625	-75.20134735107422	1586.772338867188	1055.9345703125	16.34076118469238	1573.197387695312	992.48193359375	6.140842914581299	1440.876953125	921.3516235351562	35.2708854675293	1219.990234375	907.1627807617188	-40.3931770324707	1207.306396484375	950.5062255859375	131.413330078125	966.905517578125	979.3051147460938	58.56637191772461	937.5607299804688	936.2603149414062	56.65539169311523	1104.503295898438	910.5046997070312	145.0704956054688	775.7026977539062	1009.768737792969	89.93180084228516	863.7909545898438	943.84912109375	152.1002502441406	877.9172973632812	973.7077026367188	-23.09955215454102	1588.275268554688	1344.187744140625	-40.35234069824219	1514.636352539062	1407.447265625	-45.26533508300781	1218.931762695312	1425.928466796875	-59.65642929077148	1219.12255859375	1331.320678710938	97.15170288085938	975.968994140625	1393.78759765625	23.53654289245605	956.6453857421875	1426.806762695312	-20.25840759277344	1144.904541015625	1437.139526367188	124.4472885131836	783.8466186523438	1366.462890625	128.1856689453125	868.0872192382812	1394.398193359375	64.01055145263672	858.719482421875	1427.044067382812	-23.73159599304199	1788.337646484375	1242.382934570312	133.2236175537109	1839.833862304688	1095.64013671875	142.2702789306641	1849.960205078125	1225.66650390625	-41.34973907470703	1782.609008789062	1109.157592773438	43.53547286987305	1043.975830078125	1004.435180664062	66.20606231689453	1037.4072265625	1362.857299804688	147.465576171875	1110.646240234375	1312.643432617188	148.63671875	1109.539672851562	1047.283935546875	69.32178497314453	541.9771728515625	1034.370727539062	46.63005065917969	687.9608154296875	1006.820739746094	-45.22492599487305	41.63279724121094	1041.954833984375	-34.02530670166016	296.1226501464844	1008.901245117188	186.0346069335938	40.08736801147461	1097.599731445312	105.3745956420898	44.90533828735352	1133.211547851562	79.33906555175781	39.59251403808594	1016.438598632812	-115.4747543334961	43.05586242675781	1103.346557617188	56.90326690673828	544.4636840820312	1327.93212890625	-50.00188827514648	34.32992935180664	1307.998779296875	28.73358535766602	412.0810546875	1339.343139648438	186.2197265625	48.76184463500977	1261.734008789062	127.4318466186523	40.56322479248047	1216.531860351562	85.10884857177734	43.71648406982422	1333.541381835938	-105.2978363037109	37.14006805419922	1256.777465820312	89.06455993652344	820.3184814453125	1353.47119140625	nan	nan	nan	nan	nan	nan	
4	0.03	-58.43868637084961	1132.217041015625	1242.390258789062	-53.25720977783203	1133.275756835938	1108.046875	-61.93174362182617	1164.399658203125	1172.522827148438	150.5108337402344	1367.004638671875	1180.092895507812	-103.5019226074219	1314.87158203125	1170.04052734375	-75.05022430419922	1608.114624023438	1158.9423828125	110.6449356079102	1500.685791015625	1175.533447265625	-128.2011108398438	1423.191284179688	1244.375854492188	-75.06085968017578	1586.813842773438	1056.0078125	16.46224975585938	1573.221313476562	992.5527954101562	6.227242946624756	1440.910034179688	921.4009399414062	35.31745910644531	1220.013427734375	907.2063598632812	-40.32025527954102	1207.342407226562	950.5800170898438	131.4369506835938	966.908447265625	979.3361206054688	58.58230590820312	937.573486328125	936.2708740234375	56.67803192138672	1104.52099609375	910.5428466796875	145.0657501220703	775.6980590820312	1009.77734375	89.91546630859375	863.79931640625	943.8715209960938	152.1328125	877.9239501953125	973.7145385742188	-22.89693260192871	1588.301635742188	1344.257690429688	-40.124267578125	1514.67138671875	1407.580688476562	-45.10517883300781	1218.953247070312	1426.01611328125	-59.52174758911133	1219.158813476562	1331.4111328125	97.26480865478516	975.9615478515625	1393.803833007812	23.64855575561523	956.6666870117188	1426.870361328125	-20.05913543701172	1144.9345703125	1437.204956054688	124.4946517944336	783.8353881835938	1366.464965820312	128.2557373046875	868.0781860351562	1394.401611328125	64.14328002929688	858.72265625	1427.10009765625	-23.42520523071289	1788.308715820312	1242.61962890625	133.2097015380859	1839.8515625	1095.510009765625	142.5746917724609	1849.942993164062	1225.5205078125	-41.23728561401367	1782.501220703125	1109.424072265625	43.60157775878906	1043.985595703125	1004.493713378906	66.29658508300781	1037.396606445312	1362.881469726562	147.5854034423828	1110.628662109375	1312.65673828125	148.6775360107422	1109.531982421875	1047.309204101562	69.31383514404297	541.98095703125	1034.380126953125	46.64455032348633	687.9661254882812	1006.834411621094	-45.26077651977539	41.66343307495117	1041.9248046875	-34.03996658325195	296.1362915039062	1008.911926269531	186.0374450683594	40.08627319335938	1097.601928710938	105.3832855224609	44.90640640258789	1133.20458984375	79.34208679199219	39.59170532226562	1016.433044433594	-115.4713439941406	43.05938720703125	1103.350708007812	56.92681503295898	544.4578857421875	1327.957641601562	-49.99992370605469	34.33137512207031	1307.998657226562	28.74427223205566	412.0799865722656	1339.37109375	186.2193298339844	48.75918579101562	1261.734741210938	127.43115234375	40.56474685668945	1216.532104492188	85.11070251464844	43.71870803833008	1333.54736328125	-105.3045501708984	37.14242935180664	1256.76806640625	89.10098266601562	820.295654296875	1353.491943359375	nan	nan	nan	nan	nan	nan	
